# xmcd
#
# Track frame offsets:
#	150
#	11844
#	27529
#	41804
#	52236
#	66162
#	79596
#	95045
#	109017
#	124420
#	139595
#	152413
#
# Disc length: 2282 seconds
#
# Revision: 3
# Processed by: cddbd v1.5.2PL0 Copyright (c) Steve Scherf et al.
# Submitted via: audiograbber 1.83.01
#
DISCID=a708e80c
DTITLE=Grascals, The - Keep on walkin'
DYEAR=2008
DGENRE=Country
TTITLE0=Feeling blue
TTITLE1=Sad wind sighs
TTITLE2=Choices
TTITLE3=The only daddy that will walk the line
TTITLE4=Indiana
TTITLE5=Rollin' in my sweet baby's arms
TTITLE6=Today I started loving you again
TTITLE7=Can't you hear that whistle blow
TTITLE8=Remembering
TTITLE9=Keep on walkin'
TTITLE10=Happy go lucky
TTITLE11=Farther along
EXTD=
EXTT0=
EXTT1=
EXTT2=
EXTT3=
EXTT4=
EXTT5=
EXTT6=
EXTT7=
EXTT8=
EXTT9=
EXTT10=
EXTT11=
PLAYORDER=
